<svg data-v-423bf9ae="" xmlns="http://www.w3.org/2000/svg" viewBox="0 0 384 90" class="iconLeft"><!----><!----><!----><g data-v-423bf9ae="" id="894c56e2-6731-4e60-b985-4c5300db3dbc" fill="white" transform="matrix(4.905968729932779,0,0,4.905968729932779,104.45625544054178,15.049060395782988)"><path d="M6.62 8.95L6.62 10.50L1.13 10.50L1.13 1.36L3.08 1.36L3.08 8.95L6.62 8.95ZM9.72 10.50L7.83 10.50L7.83 3.29L9.72 3.29L9.72 10.50ZM9.81 1.02L9.81 1.02Q9.81 1.47 9.51 1.78Q9.20 2.09 8.76 2.09L8.76 2.09Q8.32 2.09 8.01 1.78Q7.70 1.47 7.70 1.02L7.70 1.02Q7.70 0.59 8.01 0.29Q8.32-0.01 8.76-0.01L8.76-0.01Q9.20-0.01 9.51 0.29Q9.81 0.59 9.81 1.02ZM16.02 3.12L16.02 3.12Q16.66 3.12 17.12 3.34Q17.58 3.56 17.89 3.93Q18.19 4.31 18.33 4.83Q18.47 5.35 18.47 5.95L18.47 5.95L18.47 10.50L16.59 10.50L16.59 6.58Q16.59 5.54 16.31 5.05Q16.03 4.56 15.34 4.56L15.34 4.56Q14.52 4.56 14.12 5.25Q13.72 5.94 13.72 7.06L13.72 7.06L13.72 10.50L11.84 10.50L11.84 3.29L13.24 3.29L13.62 4.27Q13.76 4.12 13.93 3.91Q14.10 3.71 14.36 3.54Q14.62 3.36 15.02 3.24Q15.41 3.12 16.02 3.12ZM26.64 3.29L24.07 6.99Q24.36 7.39 24.70 7.84Q25.03 8.29 25.38 8.75Q25.72 9.21 26.05 9.66Q26.38 10.11 26.67 10.50L26.67 10.50L24.51 10.50L22.58 7.76L22.16 7.76L22.16 10.50L20.29 10.50L20.29 1.55L22.16 1.55L22.16 6.19L22.57 6.19Q22.57 6.19 22.71 5.97Q22.86 5.75 23.08 5.43Q23.30 5.11 23.55 4.74Q23.80 4.37 24.01 4.05Q24.22 3.72 24.37 3.51Q24.51 3.29 24.51 3.29L24.51 3.29L26.64 3.29ZM31.79 1.20L31.79 1.20Q32.28 1.20 32.73 1.28Q33.18 1.36 33.52 1.44L33.52 1.44Q33.91 1.54 34.23 1.67L34.23 1.67L34.23 3.18Q33.70 3.01 33.14 2.90Q32.58 2.79 32.05 2.79Q31.53 2.79 31.05 2.94Q30.58 3.09 30.23 3.46Q29.88 3.82 29.67 4.42Q29.46 5.01 29.46 5.92L29.46 5.92Q29.46 7.28 29.90 7.99Q30.35 8.69 31.04 8.94Q31.74 9.18 32.59 9.07Q33.43 8.96 34.23 8.69L34.23 8.69L34.23 10.15Q33.89 10.29 33.50 10.40L33.50 10.40Q33.17 10.50 32.72 10.58Q32.28 10.65 31.79 10.65L31.79 10.65Q31.35 10.65 30.84 10.57Q30.34 10.49 29.85 10.28Q29.37 10.08 28.93 9.73Q28.49 9.38 28.15 8.86Q27.80 8.33 27.61 7.60Q27.41 6.87 27.41 5.92L27.41 5.92Q27.41 4.97 27.61 4.25Q27.80 3.53 28.15 3.00Q28.49 2.48 28.93 2.13Q29.37 1.79 29.85 1.58Q30.34 1.37 30.84 1.29Q31.35 1.20 31.79 1.20ZM39.94 3.18L39.94 5.10Q39.62 5.03 39.36 5.02Q39.10 5.01 38.88 5.03L38.88 5.03Q38.43 5.05 38.14 5.22Q37.86 5.39 37.70 5.66Q37.55 5.94 37.49 6.28Q37.44 6.62 37.44 6.99L37.44 6.99L37.44 10.50L35.55 10.50L35.55 3.36L36.93 3.36L37.23 4.93Q37.23 4.93 37.26 4.77Q37.30 4.61 37.40 4.38Q37.51 4.14 37.70 3.88Q37.90 3.63 38.20 3.43Q38.50 3.23 38.93 3.15Q39.35 3.07 39.94 3.18L39.94 3.18ZM44.41 3.12L44.41 3.12Q44.97 3.12 45.63 3.29Q46.28 3.46 46.86 3.88Q47.43 4.30 47.82 5.03Q48.20 5.75 48.20 6.89L48.20 6.89Q48.20 8.02 47.82 8.75Q47.43 9.48 46.86 9.90Q46.28 10.32 45.63 10.49Q44.97 10.65 44.41 10.65L44.41 10.65Q43.85 10.65 43.19 10.49Q42.53 10.32 41.96 9.90Q41.40 9.48 41.02 8.75Q40.64 8.02 40.64 6.89L40.64 6.89Q40.64 5.75 41.02 5.03Q41.40 4.30 41.96 3.88Q42.53 3.46 43.19 3.29Q43.85 3.12 44.41 3.12ZM44.41 9.25L44.41 9.25Q45.19 9.25 45.72 8.64Q46.24 8.02 46.24 6.89L46.24 6.89Q46.24 5.75 45.72 5.14Q45.19 4.54 44.41 4.54L44.41 4.54Q43.65 4.54 43.13 5.14Q42.62 5.75 42.62 6.89L42.62 6.89Q42.62 7.45 42.76 7.89Q42.90 8.33 43.13 8.63Q43.37 8.93 43.70 9.09Q44.03 9.25 44.41 9.25ZM53.79 10.65L53.79 10.65Q53.24 10.65 52.84 10.49Q52.43 10.32 52.15 10.11L52.15 10.11Q51.83 9.87 51.59 9.56L51.59 9.56L51.59 12.22L49.71 12.22L49.71 3.29L51.17 3.29L51.53 4.24Q51.74 3.93 52.07 3.68L52.07 3.68Q52.35 3.47 52.77 3.30Q53.19 3.12 53.79 3.12L53.79 3.12Q54.61 3.12 55.19 3.42Q55.76 3.72 56.12 4.23Q56.48 4.73 56.64 5.41Q56.80 6.09 56.80 6.85L56.80 6.85Q56.80 7.60 56.64 8.29Q56.48 8.99 56.12 9.51Q55.76 10.04 55.19 10.35Q54.61 10.65 53.79 10.65ZM53.20 4.59L53.20 4.59Q52.53 4.59 52.06 5.14Q51.59 5.68 51.59 6.85L51.59 6.85Q51.59 7.99 52.06 8.60Q52.53 9.20 53.20 9.20L53.20 9.20Q53.54 9.20 53.83 9.04Q54.12 8.89 54.34 8.60Q54.56 8.30 54.69 7.86Q54.82 7.42 54.82 6.85L54.82 6.85Q54.82 6.27 54.69 5.84Q54.56 5.42 54.34 5.14Q54.12 4.86 53.83 4.72Q53.54 4.59 53.20 4.59Z"></path></g><!----><g data-v-423bf9ae="" id="e2987fee-7a24-4e9b-81e7-aae4451ccb1c" transform="matrix(1.25,0,0,1.25,-17.5,-17.5)" stroke="none" fill="white"><path d="M32 50H14v36h36V68H32zM50 14v18h18v18h18V14z"></path></g><!----></svg>