<svg xmlns="http://www.w3.org/2000/svg" fill="none" viewBox="655 95 629 415">
<path d="M786.977 308.365C788.97 308.272 790.996 308.249 792.974 308C792.924 316.022 791.927 355.001 793.141 358.908C796.342 359.902 799.567 361.175 801.299 364.268C802.277 366.014 802.572 368.193 802.778 370.153C803.341 375.51 803.557 401.04 802.15 405.522C800.834 409.713 796.742 411.996 793.033 413.785L793.005 419.251C796.136 420.159 799.593 421.258 801.254 424.335C803.277 428.081 803.347 462.72 801.738 467.076C800.458 470.542 797.661 473.265 794.333 474.8C791.371 476.167 788.452 476.282 785.404 475.137C785.226 475.069 785.053 474.989 784.878 474.914C784.075 475.517 784.134 475.662 784.014 476.63C783.897 477.578 784.099 478.545 784.254 479.479L784.484 479.74L784.98 479.428L784.917 479.819L785.184 479.395L785.58 479.884C792.893 480.074 800.208 480.14 807.523 480.082C807.586 476.69 807.915 473.43 810.585 470.968C811.831 469.82 813.258 469.24 814.902 468.893C820.902 467.628 843.2 467.884 849.759 468.453C852.929 468.727 855.22 469.488 857.353 471.954C858.192 472.925 858.881 474.031 859.569 475.114L859.649 480.385L897.579 480.56C903.695 480.59 910.429 480.085 916.487 480.749C918.638 480.911 921.575 480.602 923.481 481.632C924.224 483.121 924.099 484.353 923.548 485.908C923.446 486.199 923.336 486.488 923.23 486.778C902.096 486.718 880.964 486.821 859.832 487.086C859.51 490.801 859.11 493.782 856.126 496.386C854.976 497.389 853.634 498.094 852.293 498.807L830.757 498.864C826.128 498.887 821.069 499.307 816.497 498.545C814.671 498.241 813.258 497.521 811.686 496.575C810.96 495.831 810.197 495.22 809.388 494.573C807.764 491.895 807.603 490.664 808.073 487.572C802.315 487.546 781.773 489.039 778.131 485.83C776.116 484.055 777.349 473.011 777.468 469.965C775.502 466.855 774.464 465.134 774.302 461.375C774.075 456.143 773.558 430.574 774.798 426.781C775.646 424.189 777.787 422.023 779.586 420.041C781.234 419.85 782.998 419.799 784.477 419.002C785.512 417.576 785.147 415.387 785.114 413.693C781.113 412.406 777.49 410.642 775.584 406.672C773.497 402.33 773.61 370.843 775.375 366.099C777.15 361.328 781.71 361.083 785.422 358.744C786.749 357.908 786.546 357.124 786.773 355.691C787.843 350.661 787.146 344.237 787.132 339.053C787.105 328.828 787.177 318.587 786.977 308.365Z" fill="#A9267F"/>
<path d="M783.963 367C785.158 368.14 784.651 371.104 784.918 372.755C785.651 373.774 786.307 374.386 787.611 374.649C793.42 375.821 791.472 369.47 793.749 367.639L794.735 368.444C796.128 372.19 796.276 398.516 795.637 403.196C795.41 404.859 794.674 405.047 793.405 406L792.803 405.59C792.57 404.993 792.478 404.533 792.421 403.892C792.287 402.422 792.319 401.392 791.396 400.143C790.304 399.522 789.232 399.022 787.918 399.182C784.462 399.6 785.411 403.674 783.517 405.492L782.315 405.138C780.461 401.722 780.937 376.535 781.523 371.347C781.766 369.197 782.249 368.362 783.963 367Z" fill="#FEFEFE"/>
<path d="M783.078 426C783.357 426.129 783.66 426.214 783.914 426.386C784.742 426.949 784.7 427.634 784.789 428.499C785.022 430.769 785.151 432.492 787.089 434.041C788.351 434.207 789.013 434.206 790.117 433.5C792.067 432.254 792.796 429.825 793.108 427.715C793.133 427.553 793.153 427.389 793.175 427.226L793.817 426.796L794.8 427.491C796.742 431.843 795.764 452.003 795.677 457.816C795.632 460.872 796.088 463.724 793.701 466C792.066 465.565 791.737 461.056 790.466 459.413C789.673 458.389 789.113 457.978 787.84 457.742C784.36 459.168 785.846 462.744 784.252 465.262L783.382 465.22C782.353 464.284 781.925 463.878 781.668 462.51C780.732 457.526 780.812 433.85 781.704 428.772C781.9 427.66 782.423 426.91 783.078 426Z" fill="#FEFEFE"/>
<path d="M828.815 476.325C834.487 476.287 847.982 475.033 852.34 477.724C852.958 478.702 853.024 478.658 852.818 479.779C850.316 481.432 846.655 479.822 843.914 481.283C843.103 482.177 842.636 482.813 842.469 484.03C842.348 484.912 842.52 485.917 843.15 486.577C844.898 488.408 847.931 488.058 850.266 488.39C851.505 488.566 852.206 488.524 853 489.549C852.685 490.344 852.351 490.927 851.717 491.507C849.688 493.366 844.421 492.698 841.67 492.698C835.465 492.716 823.344 493.64 817.604 492.163C816.335 491.836 815.783 491.657 815.12 490.538C816.179 488.035 822.048 488.437 824.573 487.116C825.208 486.294 825.644 486.028 825.421 484.935C824.296 479.435 818.435 482.21 815.052 480.394C814.95 479.079 814.951 478.797 815.498 477.604C818.453 475.239 825.181 476.29 828.815 476.325Z" fill="#FEFEFE"/>
<path d="M940.681 389.429C953.656 388.539 967.255 389.31 980.29 389.315L1169.84 389.314C1188.51 389.315 1207.36 388.743 1226.01 389.392C1229.18 389.502 1232.31 389.972 1235.24 391.241C1238.65 392.721 1241.3 396.447 1242.59 399.815C1243.24 401.487 1243.52 403.196 1243.62 404.979C1244.37 418.539 1243.7 432.544 1243.71 446.148C1243.72 460.317 1244.42 474.868 1243.61 488.997C1243.45 491.75 1243.2 495.201 1241.98 497.69C1239.18 503.421 1234.03 507.063 1228.12 509.125C1221.48 510.744 1205.8 509.628 1198.31 509.586L1138.93 509.347L1007.34 509.319C986.103 509.31 964.646 509.977 943.434 509.199C940.594 509.095 938.019 508.095 935.523 506.794C931.023 504.45 927.765 500.588 926.293 495.743C925.593 493.44 925.305 491.023 925.202 488.625C924.999 483.902 925.305 479.117 925.342 474.386L925.361 447.108C925.341 434.779 924.468 419.087 925.511 407.123C925.748 404.401 926.272 402.025 927.581 399.59C930.486 394.186 934.866 391.089 940.681 389.429Z" fill="#FEFEFE"/>
<path d="M1078.12 428.292C1082.96 428.327 1095.11 427.306 1099.06 428.888C1100.2 429.342 1100.49 429.752 1101 430.845C1100.86 431.09 1100.76 431.366 1100.58 431.581C1098.55 434.021 1094.83 433.422 1092.07 433.322L1092 455.519C1092.05 457.212 1092.37 459.697 1091.93 461.301C1091.62 462.411 1091.07 462.558 1090.16 463C1088.8 462.891 1088.53 462.89 1087.43 462.093C1086.8 460.926 1086.5 459.954 1086.43 458.613C1086.29 455.82 1086.7 452.954 1086.73 450.146C1086.78 444.638 1086.64 439.114 1086.51 433.607C1084.2 433.428 1080.6 434.296 1078.65 433.04C1077.71 431.691 1078.04 429.875 1078.12 428.292Z" fill="#A9267F"/>
<path d="M1162 428.124C1166.5 428.177 1171 427.953 1175.5 428.009C1176.99 428.027 1178.44 428.041 1179.55 429.152C1179.77 430.129 1179.61 430.534 1179.22 431.442C1176.57 433.77 1170.35 432.652 1166.95 432.625L1166.94 443.01C1169.39 442.945 1172.27 442.599 1174.67 443.063C1176.16 443.35 1177.79 443.748 1178.7 445.041L1178.25 445.791C1174.64 447.755 1171.1 447.34 1167.12 447.252L1167.06 452.318L1167.07 458.101C1170.44 458.166 1174.02 457.694 1177.33 457.912C1178.6 457.995 1179.01 458.335 1179.83 459.243C1180.07 460.48 1180.07 461.175 1179.75 462.395C1177.07 463.493 1165.61 462.763 1162.01 462.756L1162 428.124Z" fill="#A9267F"/>
<path d="M971.576 428.096C974.593 427.893 978.252 427.9 981.017 429.267C982.186 429.845 982.739 430.534 983.05 431.81C983.265 432.689 983.101 432.647 982.7 433.363C979.946 434.336 976.08 432.599 973.08 432.775C971.588 432.863 970.857 433.259 969.922 434.384C968.601 443.114 981.873 443.296 984.482 450.003C985.485 452.582 984.929 455.854 983.69 458.261C981.929 461.688 978.507 462.97 975.037 463.987C971.148 464.089 968.049 463.611 964.416 462.327C964.183 460.224 964.224 458.071 964.183 455.957C964.982 456.402 965.786 456.835 966.597 457.258C969.339 458.68 972.648 459.902 975.726 458.773C977.101 458.268 978.429 457.119 978.953 455.723C981.125 449.926 967.476 446.247 964.783 440.443C964.662 440.18 964.554 439.911 964.46 439.638C964.366 439.364 964.286 439.086 964.22 438.803C964.155 438.521 964.104 438.236 964.068 437.949C964.031 437.662 964.009 437.373 964.002 437.084C963.996 436.794 964.003 436.505 964.026 436.216C964.049 435.928 964.086 435.641 964.138 435.356C964.19 435.071 964.257 434.789 964.337 434.511C964.418 434.232 964.513 433.959 964.622 433.691C965.867 430.63 968.695 429.287 971.576 428.096Z" fill="#A9267F"/>
<path d="M1105 428.154C1108.9 428.193 1112.78 428.161 1116.68 428.047C1118.64 427.99 1120.7 427.757 1122.23 429.279C1122.41 430.525 1122.32 430.795 1121.91 431.992C1119.44 434.258 1113.59 433.127 1110.45 433.05C1110.39 436.298 1110.44 439.556 1110.44 442.805L1121.1 442.825C1121.21 444.423 1121.15 446.058 1121.15 447.662L1110.52 447.656L1110.47 453.118L1110.44 458.607C1114.24 458.52 1118.7 457.946 1122.4 458.854L1122.94 459.809C1123.04 461.23 1123.09 461.868 1122.45 463.183C1120.3 464.584 1108.34 463.763 1105.11 463.742L1105 428.154Z" fill="#A9267F"/>
<path d="M1007.84 428.066C1009.54 428.02 1011.71 427.781 1013.22 428.631C1014.67 435.182 1013.65 455.016 1013.63 463L1007.98 462.87L1007.97 447.197L993.847 447.27L993.837 460.042C993.841 460.834 993.754 461.387 993.587 462.152C992.157 463.108 990.049 462.727 988.369 462.646C988.415 452.041 987.383 439.324 988.582 429.03C988.846 428.902 989.088 428.725 989.37 428.644C990.493 428.32 992.771 428.519 993.857 428.937C994.652 433.055 994.046 437.96 993.977 442.168L1007.85 442.129L1007.84 428.066Z" fill="#A9267F"/>
<path d="M1129.31 428.064L1135.08 428.07C1139.88 437.056 1144.92 446.014 1149.08 455.336C1149.26 447.163 1148.67 438.914 1149.3 430.761L1149.37 429.967L1148.64 429.451L1148.65 429.218L1149.47 429.059L1149.73 428.081C1151.07 428.017 1152.29 427.787 1153.46 428.575C1154.52 434.237 1153.71 456.279 1153.63 463.229C1152.29 463.321 1150.75 463.495 1149.44 463.161C1146.63 462.442 1136.13 440.092 1134.02 436.046C1133.96 442.301 1135.43 459.279 1132.47 464L1130.82 463.902C1128 459.579 1129.3 434.442 1129.31 428.064Z" fill="#A9267F"/>
<path d="M1054 428.235C1058.35 428.112 1063.23 427.601 1067.48 428.635C1069.94 429.234 1072.13 430.486 1073.41 432.741C1074.8 435.198 1074.81 438.199 1074.07 440.862C1073.12 444.277 1071.56 445.669 1068.56 447.381C1071.61 452.45 1074.3 457.661 1077 462.928C1075.63 462.955 1074.16 463.065 1072.79 462.942C1071.5 462.827 1071.11 462.621 1070.28 461.652C1068.67 458.259 1066.7 452.596 1063.97 450.098C1062.91 449.133 1061.82 448.429 1060.36 448.428C1058.48 450.438 1059.47 459.895 1059.5 463L1054.11 462.886L1054 428.235Z" fill="#A9267F"/>
<path d="M1059.23 433.092C1060.83 433.044 1062.71 432.83 1064.27 433.284C1065.64 433.686 1067.09 434.651 1067.67 436.179C1068.5 438.387 1067.6 440.924 1066.8 442.953C1066.31 443.344 1065.83 443.625 1065.28 443.896C1063.37 444.824 1062.26 445.462 1060.27 444.577C1058.37 441.741 1059.14 436.542 1059.23 433.092Z" fill="#FEFEFE"/>
<path d="M1185.03 428.201C1191.37 428.081 1199.81 427.055 1205.13 431.147C1208.56 433.779 1210.32 437.947 1210.81 442.2C1211.54 448.373 1210.17 453.741 1206.47 458.608C1206.27 458.789 1206.08 458.973 1205.88 459.15C1200.26 464.162 1192.02 463.063 1185.17 462.461C1185.01 451.041 1184.96 439.621 1185.03 428.201Z" fill="#A9267F"/>
<path d="M1191 433.075C1194.58 432.92 1197.68 432.77 1200.75 435.217C1203.17 437.138 1204.53 440.041 1204.89 443.275C1205.4 447.828 1204.11 452.295 1201.57 455.853C1198.23 458.797 1195.3 458.984 1191.19 459C1191.08 450.359 1191.01 441.717 1191 433.075Z" fill="#FEFEFE"/>
<path d="M1032.01 428.044C1034.88 427.917 1037.3 428 1039.93 429.221C1043.75 430.993 1046.47 434.299 1047.83 438.223C1049.73 443.732 1049.33 451.115 1046.53 456.285C1044.25 460.506 1040.99 462.63 1036.43 463.899C1033.51 464.182 1030.42 463.901 1027.73 462.67C1023.93 460.93 1021.36 457.649 1020.11 453.742C1018.28 448.052 1018.66 440.464 1021.67 435.264C1024.07 431.115 1027.47 429.198 1032.01 428.044Z" fill="#A9267F"/>
<path d="M1032.22 433.03C1033.63 432.971 1035.15 432.95 1036.5 433.445C1038.81 434.298 1040.59 436.243 1041.62 438.441C1043.4 442.246 1043.39 447.407 1041.98 451.323C1040.75 454.751 1039.07 456.408 1035.81 457.92C1034.38 458.051 1032.86 458.068 1031.48 457.608C1029.2 456.85 1027.44 454.819 1026.44 452.704C1024.65 448.899 1024.57 443.741 1025.97 439.81C1027.19 436.375 1028.99 434.596 1032.22 433.03Z" fill="#FEFEFE"/>
<path d="M655.329 136.033C655.335 128.015 654.28 113.018 655.917 105.859C656.523 103.208 657.786 100.72 659.735 98.791C660.226 98.3045 660.754 97.8951 661.298 97.471C661.466 97.3397 661.628 97.2011 661.799 97.0754C664.19 95.3148 668.722 95.4203 671.637 95.3111C693.902 94.4758 716.573 95.581 738.883 95.6361L1237.9 95.7563C1246.36 95.7462 1265.11 94.8439 1272.31 96.3273C1275.73 97.0322 1280 101.499 1281.51 104.4C1284.94 111.011 1283.76 128.961 1283.96 137C1282.73 136.324 709.261 136.063 655.329 136.033Z" fill="#A9267F"/>
<path d="M705.422 107.028C706.417 106.999 707.462 106.951 708.442 107.134C710.47 107.513 712.284 108.838 713.272 110.511C713.368 110.674 713.455 110.841 713.533 111.012C713.611 111.183 713.679 111.357 713.738 111.535C713.797 111.712 713.846 111.892 713.885 112.075C713.924 112.256 713.953 112.44 713.972 112.625C713.991 112.81 714.001 112.995 714 113.181C713.999 113.367 713.987 113.552 713.966 113.736C713.944 113.92 713.913 114.104 713.872 114.285C713.83 114.467 713.779 114.647 713.718 114.823C713.003 116.964 711.388 117.999 709.352 119C708.617 118.978 707.882 118.966 707.15 118.901C705.115 118.718 703.446 117.826 702.23 116.283C701.183 114.957 700.754 113.375 701.139 111.757C701.69 109.449 703.397 108.255 705.422 107.028Z" fill="#FEFEFE"/>
<path d="M726.746 107.084C727.484 107.038 728.252 106.972 728.989 107.013C729.225 107.024 729.46 107.048 729.693 107.085C729.926 107.121 730.157 107.17 730.385 107.232C730.612 107.293 730.836 107.366 731.056 107.451C731.276 107.537 731.49 107.634 731.699 107.742C731.908 107.851 732.111 107.97 732.307 108.101C732.503 108.231 732.691 108.371 732.871 108.521C733.051 108.672 733.223 108.832 733.386 109C733.549 109.169 733.702 109.346 733.845 109.531C734.884 110.862 735.217 112.498 734.864 114.135C734.369 116.435 732.955 117.671 731.025 118.882C729.891 118.996 728.781 119.084 727.651 118.866C726.16 118.576 724.785 117.568 723.956 116.324C723.048 114.962 722.809 113.366 723.145 111.78C723.636 109.466 724.846 108.389 726.746 107.084Z" fill="#FEFEFE"/>
<path d="M683.828 107.316C685.024 107.168 686.675 106.751 687.831 107.208C689.375 107.82 690.683 109.009 691.432 110.635C692.104 112.093 692.169 113.777 691.685 115.315C691.008 117.467 689.563 118.663 687.813 119.692C687.171 119.827 686.506 119.994 685.847 120C684.345 120.014 682.299 119.246 681.287 117.967C680.211 116.608 679.868 115.075 680.044 113.31C680.321 110.536 682.007 109.005 683.828 107.316Z" fill="#FA8C91"/>
<path d="M655.385 136C709.316 136.029 1282.77 136.291 1284 136.967L1283.72 238.092L1283.74 269.799C1283.74 276.678 1284.15 283.889 1283.12 290.701C1282.63 293.972 1280.71 296.946 1278.44 299.303C1274.58 303.311 1270.43 304.429 1265.02 304.571C1252.39 304.905 1239.66 304.505 1227.02 304.478L1153.3 304.441L740.869 304.818L694.43 304.779C685.798 304.813 676.964 305.244 668.349 304.803C664.904 304.627 661.726 303.295 659.264 300.873C657.165 298.808 655.82 296.399 655.469 293.471C654.715 287.18 655.094 280.504 655.105 274.173L655.385 136Z" fill="#FEFEFE"/>
<path d="M926.987 274.352C928.141 274.434 928.688 274.247 929.565 275.051C929.14 277.498 927.362 279.343 926.986 281.801C927.826 282.682 928.063 282.537 929.31 282.666C931.023 281.141 931.823 278.493 933.044 276.567C933.917 275.19 934.977 274.427 936.609 274.092C937.449 273.92 937.146 273.953 937.94 274.509C938.173 276.212 937.697 276.966 937.076 278.55L934.193 287C929.381 286 925.533 283.752 921 282.098C922.427 278.807 924.028 276.518 926.987 274.352Z" fill="#DDECF1"/>
<path d="M894.197 187.067C896.014 187.005 898.097 186.768 899.608 187.81C900.298 192.56 899.877 197.541 899.831 202.332C899.798 209.155 899.809 215.978 899.865 222.8C897.87 223.03 896.177 223.27 894.421 222.233C893.693 218.068 894.128 213.482 894.138 209.254L894.197 187.067Z" fill="#A9267F"/>
<path d="M1031.3 187.031C1033.05 186.966 1034.52 186.973 1036.23 187.36C1037.69 192.519 1036.63 216.06 1036.59 222.975C1034.84 223.032 1033.25 223.006 1031.52 222.758C1030.58 211.051 1031.18 198.793 1031.3 187.031Z" fill="#A9267F"/>
<path d="M849.209 187.03C850.952 187.025 852.838 186.838 854.488 187.466C855.538 198.361 854.655 211.83 854.615 222.991C852.953 223.03 851.384 222.939 849.732 222.762C848.444 211.983 849.258 198.133 849.209 187.03Z" fill="#A9267F"/>
<path d="M1008.06 187.056C1009.79 187.014 1011.5 186.821 1013.13 187.517C1014.32 193.166 1013.49 211.32 1013.49 218.126C1017.98 218.27 1022.49 218.172 1026.97 218.176C1027.04 219.753 1026.97 221.36 1026.97 222.94C1020.8 223.036 1014.64 223.017 1008.48 222.884C1007.7 211.055 1008.12 198.924 1008.06 187.056Z" fill="#A9267F"/>
<path d="M971 187L977.036 187.017L976.942 217.975C981.271 218.058 986.251 216.903 990.223 218.574C991.26 220.117 990.966 221.151 990.948 222.949L971.102 223L971 187Z" fill="#A9267F"/>
<path d="M1078 187.102C1079.71 187.041 1081.54 186.786 1083.16 187.421C1083.96 192.633 1083.39 198.746 1083.36 204.058C1087.03 198.235 1091.21 192.374 1095.65 187.153L1102 187.194C1097.78 191.995 1094.02 196.95 1090.49 202.301L1098.51 215.911C1099.47 217.535 1101.72 220.238 1101.54 222.137C1100.28 223.026 1099.05 223.156 1097.51 222.852C1094.59 222.274 1088.54 209.374 1086.57 206.358C1085.38 207.594 1084.43 209.068 1083.44 210.476L1083.41 222.771L1078 222.877L1078 187.102Z" fill="#A9267F"/>
<path d="M874.325 187.186C879.004 186.755 882.746 187.008 887.162 188.633C886.786 190.24 886.31 191.832 885.874 193.426C883.488 192.71 881.098 191.951 878.572 191.929C875.181 191.899 871.964 192.934 869.544 195.29C866.704 198.055 865.511 202.056 865.692 205.893C865.861 209.473 867.293 212.998 870.159 215.347C873.924 218.434 877.795 218.112 882.379 217.854L882.365 208.799C881.151 208.827 879.751 208.959 878.552 208.82C877.177 208.659 877.081 208.434 876.386 207.404C876.459 206.023 876.238 205.471 877.238 204.44L888 204.458L887.978 220.931C881.889 222.715 875.219 224.28 869.171 221.434C865.062 219.502 862.228 215.982 860.914 211.778C859.241 206.42 859.874 200.155 862.736 195.278C865.45 190.654 869.189 188.482 874.325 187.186Z" fill="#A9267F"/>
<path d="M949.588 187L956.207 187.048C959.649 199.008 964.001 210.803 968 222.595C966.089 222.777 964.124 222.785 962.203 222.877C961.423 220.737 959.683 213.995 957.881 212.925L946.708 212.964C946.027 215.632 945.273 221.432 942.567 222.65C941.333 223.205 940.324 223.004 939.091 222.706C937.932 219.778 948.164 191.501 949.588 187Z" fill="#A9267F"/>
<path d="M952.429 193C954.15 194.768 956.292 204.673 957 207.38L956.61 207.866L954.084 208L948 207.934C949.504 202.965 950.981 197.987 952.429 193Z" fill="#FEFEFE"/>
<path d="M1065.45 214.136L1065.45 196.449C1065.43 194.273 1065.06 191.953 1065.2 189.804C1065.29 188.439 1065.61 188.032 1066.62 187.135C1067.86 186.926 1068.47 186.932 1069.66 187.351C1070.38 188.068 1070.8 188.63 1070.92 189.66C1071.2 192.31 1070.67 195.373 1070.65 198.077L1070.62 222.936C1068.58 223.025 1066.52 222.952 1064.48 222.937C1058.34 214.898 1054.52 204.855 1049.08 196.296C1049.08 203.097 1050.05 216.397 1048.41 222.447C1047.13 223.234 1046.3 222.969 1044.82 222.91C1044.62 222.717 1044.36 222.571 1044.23 222.332C1043.73 221.432 1044.2 190.889 1044.21 187.136L1050.14 187.096C1055.71 195.737 1060.5 205.138 1065.45 214.136Z" fill="#A9267F"/>
<path d="M928.749 187.094C929.356 187.059 929.963 187.033 930.57 187.014C931.797 186.986 932.778 186.918 933.697 187.767C933.694 192.733 934.736 219.664 932.973 222.349C932.011 222.841 931.578 223.222 930.456 222.851C926.211 221.454 915.272 200.031 912.327 195.199L912.379 222.138C910.748 222.251 909.199 222.542 907.695 221.783C906.348 217.108 907.371 194.236 907.386 187.382L914.05 187.387C918.773 196.138 924.293 204.458 929.011 213.227C928.215 204.642 928.658 195.715 928.749 187.094Z" fill="#A9267F"/>
<path d="M825.806 187.186C827.801 187.031 829.979 186.917 831.971 187.079C835.478 187.363 839.117 189.092 841.219 191.769C841.442 192.054 841.648 192.349 841.838 192.654C842.029 192.96 842.201 193.273 842.356 193.596C842.512 193.918 842.649 194.247 842.768 194.582C842.888 194.918 842.988 195.258 843.069 195.603C843.15 195.949 843.212 196.297 843.255 196.649C843.298 197 843.321 197.352 843.325 197.706C843.329 198.06 843.313 198.412 843.278 198.764C843.243 199.116 843.188 199.466 843.114 199.812C842.304 203.607 840.016 205.783 836.718 207.873C839.896 212.813 842.991 217.799 846 222.832L839.782 222.88L836.63 218.008C835.019 215.559 831.714 209.482 828.548 208.715C827.902 208.559 827.978 208.732 827.338 209.145C825.213 212.833 826.593 217.107 826.164 221.062C826.041 222.192 825.796 222.226 824.868 222.842C823.266 223.088 822.516 223.073 820.97 222.608C819.309 219.267 820.293 193.03 820.255 187.625L825.806 187.186Z" fill="#A9267F"/>
<path d="M827.023 192.002C829.851 191.979 832.351 192.124 834.614 193.877C835.864 194.844 836.838 196.154 836.975 197.709C837.191 200.158 835.982 202.091 834.318 203.844C831.742 204.902 829.049 204.884 826.297 205C826.246 202.237 825.32 193.947 827.023 192.002Z" fill="#FEFEFE"/>
<path d="M1218.79 229.211C1219.83 229.111 1221.82 228.777 1222.78 229.235C1225.85 230.698 1238.86 244.782 1241.31 248.065C1242.44 249.579 1243.41 251.228 1243.81 253.091C1244.24 255.137 1243.97 257.297 1242.73 259.025C1241.08 261.311 1238.3 262.455 1235.62 263C1233.88 262.66 1232.46 262.192 1231 261.166C1226.84 258.254 1210.73 242.115 1210 237.955C1211.02 234.241 1215.63 231.186 1218.79 229.211Z" fill="#A9267F"/>
<path d="M798.564 187.024C801.476 186.9 804.23 187.239 806.838 188.596C810.697 190.604 813.08 194.154 814.159 198.217C815.654 203.841 815.272 210.931 812.076 215.929C809.469 220.006 806.098 221.865 801.471 223C797.665 223.007 794.27 222.655 791.009 220.56C787.209 218.119 785.168 214.24 784.397 209.949C783.396 204.376 784.22 197.843 787.646 193.178C790.464 189.342 793.901 187.723 798.564 187.024Z" fill="#A9267F"/>
<path d="M796.646 192.203C798.353 192.015 800.077 191.86 801.778 192.204C803.866 192.628 805.769 194.179 806.921 195.917C809.403 199.66 809.401 205.709 808.277 209.929C807.267 213.727 805.612 215.877 802.219 217.812C800.543 217.973 798.815 218.169 797.161 217.743C794.882 217.154 792.959 215.424 791.794 213.435C789.631 209.746 789.64 204.446 790.682 200.418C791.65 196.673 793.359 194.219 796.646 192.203Z" fill="#FEFEFE"/>
<path d="M954.191 275.166L1047 275.03C1046.88 279.187 1046.96 283.354 1046.98 287.512C1040.61 288.486 1023.63 287.704 1016.31 287.689L980.293 287.593C974.432 287.572 968.418 287.79 962.573 287.473C958.04 287.227 952.677 283.4 948.626 284.212C947.795 284.967 946.61 286.277 945.471 286.6C944.089 286.994 942.472 286.958 941.205 286.296C940.296 285.281 939.864 284.59 940.038 283.236C940.46 279.945 943.324 276.93 946.081 275L947.718 275.279C948.947 277.325 946.752 279.935 948.312 282.408C949.296 282.815 949.73 282.903 950.799 282.741C952.839 280.937 953.583 277.642 954.191 275.166Z" fill="#DDECF1"/>
<path d="M682.299 275.327C717.801 274.578 753.445 275.343 788.958 275.395L922 275.133C921.949 275.185 921.9 275.238 921.848 275.289C915.664 281.357 920.352 282.779 918.285 287.55L917.025 287.805L712.992 287.843C703.186 287.855 693.297 288.164 683.501 287.882C681.848 287.834 679.327 287.871 678.013 286.914C676.36 285.709 675.224 284.003 675.03 282.053C674.845 280.208 675.527 278.213 676.857 276.815C678.387 275.204 680.145 275.383 682.299 275.327Z" fill="#DDECF1"/>
<path d="M1186.31 166.128C1193.81 165.324 1202.16 168.393 1208.09 172.884C1208.55 173.229 1209 173.585 1209.45 173.953C1209.89 174.321 1210.33 174.7 1210.76 175.09C1211.18 175.48 1211.6 175.88 1212 176.291C1212.41 176.701 1212.8 177.122 1213.19 177.553C1213.57 177.984 1213.95 178.424 1214.31 178.874C1214.67 179.323 1215.02 179.781 1215.36 180.248C1215.7 180.715 1216.03 181.191 1216.35 181.674C1216.66 182.158 1216.97 182.65 1217.26 183.149C1217.55 183.647 1217.83 184.153 1218.09 184.666C1218.36 185.179 1218.61 185.699 1218.85 186.224C1219.09 186.75 1219.32 187.281 1219.53 187.818C1219.74 188.355 1219.94 188.897 1220.13 189.444C1220.31 189.991 1220.48 190.542 1220.64 191.098C1220.8 191.654 1220.94 192.214 1221.07 192.776C1221.2 193.339 1221.32 193.905 1221.42 194.474C1221.52 195.043 1221.61 195.614 1221.68 196.187C1222.92 205.67 1220.56 215.286 1214.65 222.854C1208.67 230.514 1199.72 234.805 1190.21 235.997C1181.48 236.091 1173.44 234.171 1166.38 228.831C1165.93 228.491 1165.49 228.14 1165.06 227.779C1164.63 227.417 1164.21 227.045 1163.8 226.662C1163.39 226.279 1162.98 225.886 1162.59 225.483C1162.2 225.08 1161.82 224.667 1161.44 224.245C1161.07 223.822 1160.71 223.391 1160.36 222.951C1160.01 222.511 1159.67 222.062 1159.35 221.604C1159.02 221.147 1158.7 220.681 1158.4 220.208C1158.09 219.734 1157.8 219.254 1157.52 218.766C1157.24 218.278 1156.97 217.783 1156.72 217.281C1156.46 216.78 1156.22 216.273 1155.99 215.759C1155.76 215.245 1155.54 214.726 1155.34 214.201C1155.14 213.677 1154.94 213.148 1154.77 212.613C1154.59 212.079 1154.43 211.541 1154.28 210.999C1154.13 210.456 1153.99 209.91 1153.87 209.361C1153.74 208.812 1153.63 208.26 1153.54 207.706C1153.44 207.151 1153.36 206.594 1153.29 206.035C1153.22 205.445 1153.16 204.853 1153.11 204.26C1153.06 203.666 1153.03 203.072 1153.02 202.477C1153 201.882 1153 201.288 1153.01 200.692C1153.02 200.097 1153.05 199.503 1153.09 198.91C1153.13 198.316 1153.19 197.723 1153.26 197.133C1153.33 196.542 1153.42 195.953 1153.52 195.366C1153.62 194.78 1153.73 194.196 1153.86 193.615C1153.99 193.034 1154.14 192.457 1154.29 191.883C1154.45 191.31 1154.62 190.74 1154.81 190.175C1155 189.61 1155.2 189.05 1155.41 188.495C1155.63 187.94 1155.85 187.39 1156.09 186.846C1156.34 186.303 1156.59 185.765 1156.86 185.234C1157.13 184.703 1157.41 184.178 1157.7 183.661C1158 183.144 1158.3 182.635 1158.62 182.133C1158.94 181.631 1159.27 181.137 1159.62 180.652C1159.96 180.167 1160.32 179.69 1160.69 179.222C1167.27 170.962 1176.03 167.256 1186.31 166.128Z" fill="#A9267F"/>
<path d="M1184.76 181.075C1189.29 180.774 1193.45 181.342 1197.48 183.478C1197.81 183.652 1198.13 183.834 1198.45 184.023C1198.76 184.212 1199.07 184.409 1199.38 184.613C1199.69 184.817 1199.99 185.029 1200.28 185.247C1200.58 185.466 1200.87 185.692 1201.15 185.924C1201.43 186.157 1201.71 186.396 1201.98 186.641C1202.25 186.887 1202.52 187.139 1202.78 187.398C1203.03 187.657 1203.29 187.921 1203.53 188.192C1203.77 188.462 1204.01 188.739 1204.24 189.021C1204.47 189.303 1204.69 189.59 1204.91 189.883C1205.12 190.176 1205.33 190.473 1205.53 190.776C1205.73 191.078 1205.92 191.385 1206.1 191.697C1206.29 192.009 1206.46 192.325 1206.63 192.645C1206.8 192.966 1206.96 193.29 1207.11 193.618C1207.26 193.945 1207.4 194.277 1207.53 194.611C1207.66 194.946 1207.79 195.283 1207.9 195.624C1208.02 195.965 1208.13 196.308 1208.22 196.653C1208.32 196.994 1208.41 197.337 1208.49 197.682C1208.57 198.027 1208.64 198.374 1208.7 198.722C1208.76 199.07 1208.81 199.42 1208.86 199.771C1208.9 200.122 1208.93 200.474 1208.96 200.827C1208.98 201.18 1208.99 201.533 1209 201.886C1209 202.24 1209 202.593 1208.98 202.946C1208.97 203.3 1208.95 203.652 1208.91 204.004C1208.88 204.356 1208.84 204.707 1208.79 205.057C1208.73 205.407 1208.67 205.755 1208.6 206.102C1208.53 206.449 1208.45 206.794 1208.36 207.137C1208.27 207.48 1208.18 207.82 1208.07 208.158C1207.96 208.497 1207.85 208.832 1207.72 209.165C1207.6 209.497 1207.46 209.825 1207.32 210.151C1207.18 210.477 1207.03 210.799 1206.87 211.117C1206.71 211.436 1206.54 211.75 1206.36 212.06C1206.18 212.37 1206 212.676 1205.81 212.976C1202.26 218.507 1196.74 221.341 1190.39 222.909C1185.53 223.223 1181.24 222.802 1176.89 220.442C1176.57 220.265 1176.25 220.081 1175.94 219.888C1175.63 219.695 1175.32 219.495 1175.02 219.288C1174.72 219.08 1174.43 218.864 1174.14 218.642C1173.85 218.419 1173.56 218.19 1173.29 217.954C1173.01 217.717 1172.74 217.473 1172.47 217.223C1172.21 216.974 1171.95 216.718 1171.7 216.455C1171.45 216.192 1171.21 215.923 1170.97 215.649C1170.74 215.373 1170.51 215.092 1170.29 214.806C1170.07 214.52 1169.85 214.229 1169.65 213.932C1169.44 213.635 1169.25 213.333 1169.06 213.027C1168.87 212.721 1168.69 212.41 1168.51 212.094C1168.34 211.778 1168.18 211.459 1168.02 211.135C1167.87 210.812 1167.72 210.484 1167.59 210.153C1167.45 209.822 1167.32 209.488 1167.2 209.151C1167.08 208.814 1166.97 208.474 1166.87 208.131C1166.77 207.788 1166.68 207.443 1166.59 207.096C1165.24 201.593 1166.21 195.542 1169.39 190.768C1173 185.349 1178.4 182.491 1184.76 181.075Z" fill="#FEFEFE"/>
<path d="M680.724 154C699.388 154.456 718.063 154.237 736.732 154.337C773.756 154.724 810.78 154.837 847.806 154.677L1046.76 154.653C1046.7 158.209 1047.58 161.892 1046.3 165.295C1045.08 166.204 1044.26 165.963 1042.72 165.99L709.568 165.485C700.39 165.495 691.008 165.964 681.86 165.622C680.831 165.583 679.851 165.42 678.933 164.953C677.623 164.288 676.732 163.139 676.298 161.834C675.723 160.103 676.003 158.136 676.945 156.556C677.858 155.026 678.948 154.436 680.724 154Z" fill="#DDECF1"/>
<path d="M678.205 245.383C711.151 244.591 744.209 245.262 777.17 245.33L967.338 245.436L1019.11 245.403C1028.29 245.427 1037.52 245.832 1046.69 245.43C1046.66 249.616 1047.75 260.035 1046.01 263.333L1044.3 263.533L753.699 263.415L703.566 263.7C696.161 263.722 688.307 264.325 680.957 263.757C679.597 263.651 678.288 263.328 677.273 262.361C675.461 260.634 675.033 257.735 675.003 255.362C674.956 251.555 675.459 248.158 678.205 245.383Z" fill="#DDECF1"/>
</svg>